<?xml version="1.0" standalone="no"?><!DOCTYPE svg PUBLIC "-//W3C//DTD SVG 1.1//EN" "http://www.w3.org/Graphics/SVG/1.1/DTD/svg11.dtd"><svg t="1685535357175" class="icon" viewBox="0 0 1024 1024" version="1.1" xmlns="http://www.w3.org/2000/svg" p-id="3389" xmlns:xlink="http://www.w3.org/1999/xlink" width="200" height="200"><path d="M832 523.584c0-29.856-22.4-53.488-49.392-53.488-1.808 0-3.28 0.064-4.336 0.208l-21.632 2.752-4.816-21.264c-10.448-46.112-32.848-88.048-64.352-121.28C642.352 283.04 581.792 256 517.12 256c-64.672 0-125.232 27.024-170.352 74.496a259.424 259.424 0 0 0-64.256 120.912l-4.256 18.688h-20.848C230.4 470.08 208 493.728 208 523.584c0 29.728 22.384 53.28 49.392 53.28 2.016 0 3.584-0.064 4.944-0.224l19.728-2.336 5.968 18.944C320.768 696.992 412.64 768 517.12 768c64.688 0 125.248-27.024 170.352-74.48a258.08 258.08 0 0 0 58.88-101.056l6.464-20.784 21.312 4.384c2.608 0.544 5.424 0.8 8.496 0.8 27.008 0 49.392-23.552 49.392-53.28z m48 0c0 54.56-41.536 99.408-94.048 101.232a305.2 305.2 0 0 1-63.68 101.744C668.24 783.408 595.2 816 517.104 816c-120.16 0-225.824-77.424-269.04-191.584C198.4 619.536 160 576.048 160 523.584c0-49.696 34.352-91.376 80.08-99.904a306.72 306.72 0 0 1 71.872-126.24C365.968 240.608 439.024 208 517.104 208c78.08 0 151.152 32.592 205.184 89.472a306.656 306.656 0 0 1 71.584 125.28c48.72 5.824 86.128 48.96 86.128 100.832zM514.688 316.64l18.8-4.224a14.96 14.96 0 0 1 17.408 9.648c12.976 37.088 45.536 64 84.176 68.96 7.392 0.96 12.928 7.248 12.928 14.704v22.88a11.392 11.392 0 0 1-12.32 11.36c-60.864-5.072-112.432-47.264-131.04-105.84a13.68 13.68 0 0 1 10.048-17.488z" fill="#db079b" p-id="3390"></path></svg>